# Blender 4.3.0
# www.blender.org
o duck
v -9.215512 0.012227 -6.505497
v -8.469498 1.526253 -6.505497
v -9.215766 0.012247 7.792543
v -9.659830 10.132125 -5.149838
v -9.659830 10.132125 -3.434579
v -7.385405 10.132133 -3.442074
v -9.659830 14.263724 -5.149838
v -8.711889 14.263729 -4.569020
v -9.659830 14.263726 -3.434579
v -8.711888 14.263730 -3.531496
v -7.898477 1.526253 -3.448910
v -7.899312 1.526337 -2.405572
v -5.607161 1.526253 -2.351920
v -5.401467 10.331409 -2.349468
v -5.092824 10.132442 -3.444543
v -5.606954 1.526253 -3.448910
v 5.582666 1.526253 -3.448910
v 9.308887 10.132125 -5.149838
v -7.001945 10.344504 -2.356888
v -7.002729 11.923208 -2.348207
v -7.009192 16.442453 -2.323201
v -7.139210 14.263709 -3.441864
v 8.089303 14.263755 -3.531496
v -4.846458 14.263744 -3.436018
v -5.401495 11.920406 -2.345713
v -4.723048 16.332354 -2.324054
v 8.089306 14.263738 -4.569020
v -8.469499 1.526254 7.792549
v 8.918331 0.011370 7.792548
v -5.535969 1.526254 6.894376
v -5.536031 1.526254 5.305370
v -7.137103 1.526265 5.305393
v -7.136822 1.526364 6.894272
v -5.485575 5.059627 3.753276
v -7.066885 6.139275 2.093108
v -8.716930 24.957510 -3.531497
v -8.716932 24.957510 -4.569021
v -9.671755 24.957510 -5.149839
v -9.671755 29.089140 -5.149840
v -9.671755 29.089140 -3.434580
v 9.304037 29.089140 -5.149840
v -9.671755 24.957510 -3.434580
v -7.009192 16.442453 -3.448912
v -4.723002 16.332520 -3.448912
v 9.304037 24.957510 -5.149839
v 8.882231 0.011371 -6.505494
v 7.873147 1.526253 -3.448911
v 5.582969 1.526256 -2.354584
v 7.873840 1.526254 -2.398214
v 5.520936 2.830962 -2.352640
v 7.464929 10.132131 -3.443910
v 9.308887 14.263730 -5.149838
v 9.308887 10.132125 -3.434579
v 4.977743 14.263568 -3.436545
v 5.173974 10.132090 -3.447458
v 5.549758 9.871261 -2.336528
v 7.151546 9.877060 -2.343744
v 5.549211 11.457539 -2.332991
v 4.907970 15.733390 -2.323200
v 7.150485 11.461248 -2.336430
v 9.308884 14.263732 -3.434467
v 7.268986 14.263873 -3.444550
v 7.195217 15.819855 -2.320320
v 9.199785 0.045163 -6.504488
v 8.469518 1.526253 -6.505497
v 8.469512 1.526254 7.792549
v 7.212755 1.526254 5.298570
v 5.611446 1.526254 5.298539
v 7.210345 1.526347 6.888385
v 5.609099 1.526352 6.888380
v 9.199695 0.045345 7.790234
v 4.907940 15.733386 -3.448912
v 7.195096 15.820199 -3.448912
v 9.304037 29.089140 -3.434580
v 9.304037 24.957510 -3.434580
v 8.090320 24.957510 -4.569021
v 8.090318 24.957510 -3.531497
vn -1.0000 -0.0000 -0.0000
vn -0.0000 1.0000 -0.0000
vn -0.0001 1.0000 -0.0000
vn 0.9982 -0.0596 0.0002
vn -0.0000 0.0008 -1.0000
vn -0.0047 -0.0050 1.0000
vn 0.9999 -0.0000 0.0138
vn -0.0000 -0.0055 1.0000
vn -0.0016 -0.0055 1.0000
vn -0.0000 1.0000 0.0001
vn -0.0000 1.0000 0.0003
vn -0.0000 -0.0000 1.0000
vn 0.9982 -0.0595 -0.0000
vn -0.0000 -1.0000 0.0002
vn -0.0000 -0.0000 -1.0000
vn -0.8970 0.4420 -0.0000
vn -0.8970 0.4421 -0.0000
vn 0.9999 -0.0143 -0.0000
vn -0.0000 0.6644 0.7474
vn -0.0001 1.0000 -0.0001
vn -0.9999 0.0153 0.0002
vn -0.9999 0.0148 -0.0006
vn -0.9999 -0.0004 -0.0149
vn 0.9999 -0.0133 0.0023
vn -1.0000 -0.0005 -0.0000
vn -0.0000 -1.0000 -0.0000
vn 0.0025 -0.0034 -1.0000
vn 0.0480 0.9988 -0.0000
vn 0.9982 -0.0596 -0.0000
vn -0.0000 0.0006 -1.0000
vn 0.9989 0.0474 -0.0007
vn -0.0000 1.0000 0.0025
vn 0.0045 -0.0023 1.0000
vn 0.0008 -0.0015 1.0000
vn -0.9989 -0.0474 0.0002
vn -0.0001 1.0000 -0.0027
vn 0.0001 1.0000 -0.0007
vn 0.9989 0.0474 -0.0001
vn -0.0133 -0.0022 0.9999
vn 0.0031 0.0008 -1.0000
vn 0.1058 -0.9944 -0.0003
vn 1.0000 -0.0000 -0.0000
vn -1.0000 -0.0087 -0.0015
vn 1.0000 0.0087 0.0015
vn 0.8969 0.4422 -0.0000
vn 0.0079 0.0024 1.0000
vn -0.9989 -0.0474 -0.0000
vn 1.0000 -0.0001 -0.0000
vn 0.0033 -0.0000 1.0000
vn 0.0004 1.0000 -0.0001
vn -0.9982 0.0595 -0.0008
vn -0.0234 0.0003 0.9997
vn -0.0011 0.0006 -1.0000
vn 0.0002 -0.0024 1.0000
vn 0.9982 -0.0596 0.0004
vn -0.0441 0.0008 0.9990
vn 0.0001 -1.0000 -0.0002
vn -0.9982 0.0596 -0.0000
vn 0.0372 -0.0055 0.9993
vn 0.0029 -0.0002 1.0000
vn -0.0000 1.0000 -0.0015
vn -0.9982 0.0595 -0.0011
vn -0.0166 -0.0024 0.9999
vn 0.0001 -0.0049 1.0000
vn 0.0001 1.0000 0.0002
vn -0.0000 -0.6559 -0.7548
vn -0.9999 -0.0004 -0.0150
vn -0.0019 -0.6561 -0.7547
vn 0.0481 0.9988 0.0001
vn -0.0003 -0.0062 -1.0000
vn -0.9989 -0.0474 0.0003
vn -0.9989 -0.0475 -0.0002
vn -0.0000 -1.0000 -0.0001
vn 0.0284 -0.0041 0.9996
vn 0.0015 0.0002 -1.0000
vn 0.0190 -0.0049 0.9998
vn 0.0001 -0.0023 1.0000
vn -0.9989 -0.0475 -0.0000
vn 0.0022 -0.0020 1.0000
vn -0.0049 -0.0001 1.0000
vn 0.9989 0.0474 -0.0008
vn -0.0051 -0.0000 1.0000
vn 0.0001 1.0000 -0.0001
vn -0.0000 1.0000 -0.0001
vn -0.0009 -0.6750 -0.7378
vn -0.0000 -0.6751 -0.7377
vn -1.0000 -0.0004 0.0061
vn -0.0000 0.6804 0.7328
vn 1.0000 0.0007 -0.0057
vn 0.1199 -0.9928 -0.0000
vn 0.0001 -0.0028 -1.0000
vn -0.0378 0.9993 0.0003
vn -0.0379 0.9993 -0.0000
vn -0.0035 -0.0086 -1.0000
vn -0.0011 -0.0037 1.0000
s 0
f 9//1 4//1 5//1
f 8//2 7//2 9//2
f 12//3 2//3 28//3
f 16//2 2//2 11//2
f 13//2 17//2 16//2
f 28//2 13//2 12//2
f 13//4 16//4 15//4
f 6//5 16//5 11//5
f 19//6 12//6 14//6
f 25//7 34//7 14//7
f 19//8 21//8 12//8
f 21//9 20//9 25//9
f 22//10 10//10 9//10
f 22//11 23//11 10//11
f 23//12 36//12 10//12
f 26//13 15//13 24//13
f 18//14 15//14 4//14
f 37//15 27//15 8//15
f 27//2 7//2 8//2
f 3//16 2//16 1//16
f 3//17 28//17 2//17
f 31//2 13//2 32//2
f 30//18 31//18 34//18
f 30//19 34//19 33//19
f 33//20 32//20 28//20
f 66//2 30//2 28//2
f 33//21 35//21 32//21
f 32//22 35//22 19//22
f 33//23 20//23 35//23
f 34//24 31//24 14//24
f 10//25 36//25 8//25
f 8//25 36//25 37//25
f 37//26 42//26 38//26
f 42//1 40//1 39//1
f 42//1 39//1 38//1
f 43//27 24//27 22//27
f 44//28 43//28 21//28
f 44//29 26//29 24//29
f 45//26 37//26 38//26
f 39//15 45//15 38//15
f 76//26 37//26 45//26
f 65//15 1//15 2//15
f 17//2 65//2 16//2
f 46//26 29//26 1//26
f 17//30 51//30 47//30
f 49//31 47//31 51//31
f 67//2 48//2 13//2
f 48//2 17//2 13//2
f 52//15 18//15 4//15
f 54//32 23//32 24//32
f 53//26 51//26 18//26
f 56//33 50//33 57//33
f 57//34 50//34 48//34
f 55//35 50//35 54//35
f 62//36 23//36 54//36
f 61//37 23//37 62//37
f 63//38 49//38 62//38
f 56//39 58//39 50//39
f 46//40 65//40 64//40
f 64//41 29//41 46//41
f 61//2 52//2 27//2
f 61//2 27//2 23//2
f 61//42 53//42 52//42
f 49//2 65//2 47//2
f 70//10 30//10 66//10
f 68//43 70//43 56//43
f 69//44 67//44 57//44
f 66//45 71//45 65//45
f 66//46 29//46 71//46
f 54//47 59//47 72//47
f 77//26 42//26 36//26
f 74//2 41//2 40//2
f 74//12 42//12 75//12
f 23//48 27//48 76//48
f 75//42 45//42 41//42
f 74//42 75//42 41//42
f 41//15 45//15 39//15
f 4//26 6//26 5//26
f 6//49 9//49 5//49
f 4//1 9//1 7//1
f 10//2 8//2 9//2
f 12//50 11//50 2//50
f 11//51 12//51 6//51
f 13//52 14//52 12//52
f 6//53 15//53 16//53
f 16//2 65//2 2//2
f 15//54 55//54 54//54 24//54
f 26//55 13//55 15//55
f 13//56 26//56 14//56
f 4//57 15//57 6//57
f 12//58 21//58 22//58
f 19//59 20//59 21//59
f 22//60 9//60 6//60
f 22//61 24//61 23//61
f 12//62 22//62 6//62
f 26//63 25//63 14//63
f 26//64 21//64 25//64
f 27//2 52//2 7//2
f 7//15 52//15 4//15
f 29//26 3//26 1//26
f 29//12 28//12 3//12
f 32//2 13//2 28//2
f 28//65 30//65 33//65
f 32//66 19//66 31//66
f 66//12 28//12 29//12
f 30//2 68//2 31//2
f 68//2 13//2 31//2
f 35//67 20//67 19//67
f 33//19 34//19 20//19
f 19//68 14//68 31//68
f 25//19 20//19 34//19
f 40//2 41//2 39//2
f 74//12 40//12 42//12
f 37//26 36//26 42//26
f 43//58 22//58 21//58
f 21//69 26//69 44//69
f 24//70 43//70 44//70
f 17//71 48//71 55//71
f 17//2 47//2 65//2
f 67//2 49//2 48//2
f 55//72 48//72 50//72
f 18//73 55//73 15//73
f 57//74 49//74 63//74 60//74
f 55//75 51//75 17//75
f 18//26 51//26 55//26
f 49//76 57//76 48//76
f 58//77 59//77 50//77
f 50//78 59//78 54//78
f 60//79 59//79 58//79
f 49//2 67//2 66//2 65//2
f 61//80 62//80 51//80
f 51//81 62//81 49//81
f 1//15 65//15 46//15
f 52//42 53//42 18//42
f 61//82 51//82 53//82
f 68//2 67//2 13//2
f 66//10 69//10 70//10
f 66//83 67//83 69//83
f 70//84 68//84 30//84
f 68//85 56//85 57//85
f 68//86 57//86 67//86
f 70//87 58//87 56//87
f 70//88 60//88 58//88
f 70//88 69//88 60//88
f 57//89 60//89 69//89
f 65//45 71//45 64//45
f 64//90 71//90 29//90
f 72//91 73//91 62//91
f 63//38 62//38 73//38
f 59//92 63//92 73//92
f 72//93 59//93 73//93
f 77//26 75//26 42//26
f 77//48 23//48 76//48
f 45//26 75//26 77//26
f 76//26 45//26 77//26
f 37//15 76//15 27//15
f 23//12 77//12 36//12
f 72//94 62//94 54//94
f 60//95 63//95 59//95
