# Blender 4.3.0
# www.blender.org
mtllib sneakers.mtl
o jumpBooster
v -1.552916 -0.110702 -0.728478
v -1.270553 -0.109255 -1.092775
v -1.686144 -0.110574 0.250361
v -1.436271 1.653144 -0.587507
v -1.291137 0.921797 -1.054706
v -0.830099 0.946038 -1.088517
v -1.665430 0.584837 0.047415
v -0.309383 -0.108694 -1.031428
v -0.042273 -0.110893 0.223139
v -0.399538 0.961183 -1.048639
v -0.151663 0.845831 -0.657126
v -0.050709 0.575176 0.109979
v -0.153340 1.579526 0.290443
v -1.584310 -0.110747 1.370565
v -1.163811 -0.110721 1.740921
v -1.580700 0.483808 1.303412
v -1.435082 0.914597 0.763161
v -1.419688 0.786234 1.193672
v -1.270781 0.409349 1.654952
v -0.783066 0.853380 1.339704
v -0.835841 0.492793 1.695614
v -0.246506 -0.110729 1.606392
v -0.776200 0.986008 0.887939
v -0.258363 0.881933 0.715031
v -0.275664 0.758381 1.115318
v -0.149266 0.467455 1.336038
v -0.474294 0.521438 1.622847
v -1.185508 1.743150 -0.846381
v -1.515356 1.712307 0.301659
v -1.151280 1.714662 -0.567810
v -1.189308 1.664094 0.287411
v -1.268037 1.868406 0.222464
v -0.625128 1.963090 0.294737
v -0.802385 1.751355 -0.692918
v -0.419094 1.703498 -0.477993
v -0.332356 1.727252 -0.796911
v -0.864437 1.162011 -0.219021
v -0.588204 1.730858 0.388765
v -0.294034 1.697807 0.188729
v -1.436882 1.735626 0.588735
v -1.150824 1.500732 0.805289
v -1.337758 1.919673 0.317261
v -0.802532 2.145023 0.519423
v -0.442230 1.634408 0.746244
v -0.247801 1.403436 0.599311
v -0.201603 1.917014 0.486763
v 0.260686 -0.108706 -1.016805
v 1.372316 -0.109490 -1.073008
v 0.042730 -0.111021 0.221611
v 0.399703 0.964996 -1.047756
v 0.146672 0.820946 -0.653336
v 0.831106 0.985413 -1.085841
v 0.075909 0.725164 -0.068482
v 1.685294 -0.110726 0.175718
v 1.291995 0.924180 -1.053761
v 1.536793 0.867077 -0.693335
v 1.665081 0.607237 0.063292
v 0.273571 -0.110762 1.643525
v 0.130991 0.440892 1.319187
v 0.291455 0.953205 0.743533
v 0.275300 0.758956 1.113443
v 0.751004 0.830956 1.339978
v 0.494770 0.575089 1.587024
v 0.693771 0.300191 1.754763
v 1.425283 -0.110773 1.634709
v 1.443282 0.898915 0.773102
v 1.387039 0.843361 1.181840
v 1.580213 0.462123 1.318055
v 1.266415 0.453531 1.640397
v 0.331574 1.727344 -0.772099
v 1.258464 1.734805 -0.855031
v 0.549266 1.750247 -0.654603
v 0.164078 1.636471 0.192757
v 0.394386 1.614377 -0.011600
v 0.861315 1.149632 -0.225689
v 0.601500 1.667564 0.295736
v 0.665420 1.950190 0.276636
v 0.692287 2.137847 0.521725
v 1.171543 1.709817 -0.557579
v 1.181180 1.650667 0.291878
v 1.280054 1.861046 0.221200
v 0.208174 1.417691 0.415199
v 0.259847 1.824825 0.537048
v 0.728906 1.516959 0.830384
v 0.580138 1.867378 0.534249
v 0.685433 1.653300 0.396011
v 1.446321 1.476128 0.712022
v 1.342457 1.917812 0.321500
v 1.516388 1.620473 0.275273
v 1.413342 1.955265 0.460201
vn -0.0002 -1.0000 0.0001
vn -0.7904 0.0068 -0.6126
vn -0.9734 0.0815 -0.2142
vn 0.0002 -1.0000 -0.0002
vn -0.1654 0.9435 0.2872
vn -0.9269 0.3494 0.1373
vn -0.1551 0.9485 0.2761
vn -0.9958 0.0163 0.0905
vn -0.6609 -0.0119 0.7504
vn 0.1451 -0.0046 0.9894
vn 0.1937 0.0443 0.9801
vn 0.5653 0.6402 0.5201
vn -0.7374 0.2536 -0.6261
vn 0.1438 0.9882 -0.0530
vn -0.0903 -0.3331 -0.9385
vn 0.8674 0.4930 0.0677
vn 0.0252 0.9929 -0.1161
vn 0.9745 0.1782 -0.1362
vn -0.0651 0.9919 0.1094
vn 0.2139 0.5984 0.7721
vn 0.0365 0.7213 -0.6917
vn 0.5766 0.7950 -0.1884
vn -0.4959 0.1794 0.8497
vn 0.0457 0.1907 0.9806
vn 0.9464 0.0516 0.3188
vn 0.6728 0.1001 0.7330
vn -0.0004 0.4057 0.9140
vn 0.6984 0.1415 0.7016
vn -0.1882 0.0207 0.9819
vn -0.2280 0.4952 0.8383
vn -0.4755 0.7990 0.3681
vn 0.8403 0.5005 -0.2081
vn -0.0763 -0.3357 0.9389
vn -0.0008 -1.0000 -0.0020
vn -0.0008 -1.0000 -0.0008
vn 0.8304 0.0748 -0.5521
vn 0.9386 0.3002 0.1700
vn 0.6044 0.5215 0.6023
vn 0.0533 0.6655 0.7445
vn 0.9966 0.0393 0.0720
vn -0.6039 0.6077 0.5158
vn -0.3486 0.8079 0.4752
vn 0.9707 -0.1669 0.1730
vn -0.0987 0.3439 -0.9338
vn -0.0356 0.9885 -0.1470
vn -0.9722 0.1784 -0.1520
vn 0.7384 0.6014 0.3050
vn 0.5070 0.7245 -0.4670
vn 0.8278 0.1656 -0.5360
vn -0.0731 -0.2866 -0.9553
vn -0.8624 0.5042 0.0449
vn 0.0992 0.2408 -0.9655
vn 0.0161 0.7134 -0.7006
vn -0.3820 0.7535 -0.5351
vn -0.9561 0.0343 0.2910
vn 0.9607 0.1781 0.2130
vn 0.0027 0.0451 0.9990
vn -0.9873 0.1239 -0.0992
vn -0.9582 0.0647 0.2786
vn 0.3237 0.0399 0.9453
vn -0.0315 -0.1283 0.9912
vn 0.2478 0.7422 -0.6227
vn -0.9743 0.0303 0.2230
vn -0.9064 -0.2087 -0.3672
vn -0.5714 0.7764 -0.2658
vn 0.0297 0.9928 0.1163
vn -0.0749 0.0353 -0.9966
vn -0.8999 0.0936 -0.4260
vn 0.9806 -0.0595 -0.1866
vn 0.8515 0.0634 -0.5205
vn -0.9908 -0.0098 -0.1349
vn -0.2164 0.7120 0.6680
vn 0.0016 -1.0000 -0.0027
vn 0.0007 -1.0000 -0.0019
vn -0.8632 0.4952 0.0981
vn -0.9962 0.0505 0.0713
vn 0.2874 0.9150 0.2832
vn -0.5761 0.5319 0.6206
vn -0.0000 -1.0000 0.0001
vn 0.3936 0.9192 0.0122
vn 0.9285 0.3415 0.1455
vn 0.8778 0.4659 0.1115
vn 0.0891 0.6931 0.7154
vn 0.9886 0.0362 0.1460
vn -0.7392 0.0800 0.6687
vn 0.6657 0.2213 0.7127
vn 0.3703 0.7777 0.5080
vn 0.9886 -0.1346 0.0676
vn -0.1184 0.1382 0.9833
vn -0.2139 0.9757 0.0482
vn 0.0762 0.3207 -0.9441
vn 0.0716 0.9930 0.0934
vn 0.8534 0.0936 -0.5127
vn 0.0608 0.3068 -0.9498
vn -0.5478 -0.3873 -0.7416
vn -0.3269 0.6129 0.7194
vn -0.3045 0.7606 -0.5734
vn -0.0606 -0.0314 -0.9977
vn -0.7299 0.6685 0.1426
vn -0.0841 0.2551 -0.9632
vn -0.2176 0.9679 0.1257
vn -0.9643 0.0530 0.2593
vn 0.1419 0.1957 -0.9703
vn -0.7561 0.6359 0.1550
vn -0.4780 0.7792 0.4054
vn 0.0347 0.9864 0.1606
vn 0.0011 -1.0000 -0.0000
vn 0.0726 0.0242 -0.9971
vn -0.8533 0.0957 -0.5125
vn -0.9846 -0.0211 -0.1733
vn 0.9699 -0.0108 -0.2431
vn -0.9889 -0.0700 -0.1311
vn 0.9766 -0.0883 -0.1959
vn -0.3309 0.8414 0.4274
vn -0.8160 0.5257 0.2404
vn -0.6037 0.0485 0.7957
vn 0.8691 0.4813 0.1144
vn 0.1505 0.7333 0.6630
vn -0.0000 -1.0000 -0.0000
vn 0.0830 -0.1405 0.9866
vn 0.0257 0.5342 0.8450
vn -0.9745 -0.1588 0.1582
vn -0.5264 0.3257 0.7854
vn 0.7009 0.1904 0.6874
vn 0.0263 0.9891 0.1448
vn -0.8542 0.1076 -0.5087
vn -0.0216 0.9881 -0.1526
vn -0.0867 0.3319 -0.9393
vn 0.9628 0.2227 -0.1529
vn 0.2355 -0.1185 -0.9646
vn 0.0727 -0.0181 -0.9972
vn 0.0701 0.9945 0.0777
vn 0.1798 0.4556 0.8718
vn 0.0493 0.9940 0.0979
vn -0.0944 0.5456 0.8327
vn -0.6568 0.3043 0.6900
vn -0.4255 0.1940 0.8839
vn -0.0762 0.6245 0.7773
vn 0.1676 0.1029 0.9805
vn -0.1991 0.2259 -0.9536
vn 0.0223 -0.7237 -0.6897
vn -0.9834 0.1529 -0.0976
vn 0.9891 0.1170 -0.0889
vn 0.9867 0.0120 0.1622
vn -0.0002 -1.0000 -0.0000
vn 0.8216 0.4341 0.3695
vn -0.0672 0.7804 -0.6216
vn -0.5372 0.5106 -0.6713
vn 0.9701 -0.1319 -0.2038
vn 0.2790 0.7950 0.5386
vn 0.9967 0.0771 0.0247
vn -0.9001 0.4184 0.1214
vn -0.9970 0.0574 0.0513
vn -0.9690 0.0506 0.2419
vn 0.0170 -0.6717 -0.7406
vn -0.8406 0.4796 0.2516
vn 0.6716 0.4805 -0.5640
vn 0.0702 0.9141 -0.3995
vn 0.1448 0.7779 -0.6115
vn 0.9514 0.0424 0.3050
vn -0.9670 0.0067 0.2548
vn 0.9605 0.0855 0.2650
s 0
usemtl main
f 1//1 9//1 3//1
f 2//2 1//2 5//2
f 7//3 4//3 1//3
f 3//4 15//4 14//4
f 20//5 17//5 18//5
f 7//6 18//6 17//6
f 20//7 23//7 17//7
f 14//8 16//8 3//8
f 15//9 19//9 14//9
f 21//10 15//10 22//10
f 21//11 22//11 27//11
f 27//12 26//12 25//12
f 4//13 28//13 5//13
f 29//14 31//14 4//14
f 29//15 32//15 31//15
f 30//16 31//16 37//16
f 34//17 36//17 28//17
f 13//18 11//18 36//18
f 34//19 28//19 30//19
f 34//20 30//20 37//20
f 31//21 38//21 37//21
f 33//22 43//22 39//22
f 41//23 40//23 17//23
f 44//24 41//24 23//24
f 13//25 45//25 24//25
f 44//26 45//26 46//26
f 44//27 43//27 41//27
f 45//28 44//28 24//28
f 41//29 17//29 23//29
f 43//30 40//30 41//30
f 40//31 43//31 42//31
f 44//32 38//32 43//32
f 43//33 38//33 46//33
f 47//34 48//34 49//34
f 54//35 58//35 48//35
f 56//36 48//36 55//36
f 67//37 57//37 66//37
f 67//38 69//38 68//38
f 69//39 62//39 63//39
f 68//40 54//40 57//40
f 63//41 61//41 59//41
f 63//42 62//42 61//42
f 68//43 65//43 54//43
f 50//44 71//44 52//44
f 76//45 74//45 73//45
f 51//46 73//46 70//46
f 74//47 75//47 72//47
f 74//48 76//48 75//48
f 71//49 56//49 55//49
f 81//50 89//50 80//50
f 80//51 79//51 75//51
f 71//52 55//52 52//52
f 76//53 80//53 75//53
f 78//54 77//54 73//54
f 60//55 83//55 82//55
f 87//56 89//56 90//56
f 85//57 78//57 83//57
f 53//58 73//58 51//58
f 17//59 29//59 7//59
f 44//60 23//60 24//60
f 66//61 84//61 60//61
f 43//62 46//62 39//62
f 53//63 82//63 73//63
f 77//64 86//64 85//64
f 83//65 78//65 73//65
f 86//66 80//66 76//66
f 5//67 6//67 2//67
f 1//68 4//68 5//68
f 9//69 8//69 11//69 12//69
f 8//70 10//70 11//70
f 7//71 1//71 3//71
f 20//72 18//72 19//72 21//72
f 1//73 2//73 9//73
f 2//74 8//74 9//74
f 7//75 16//75 18//75
f 3//76 16//76 7//76
f 23//77 20//77 25//77 24//77
f 19//78 18//78 16//78
f 9//79 22//79 15//79
f 35//80 39//80 13//80 36//80
f 24//81 25//81 12//81
f 25//82 26//82 12//82
f 21//83 27//83 20//83
f 12//84 22//84 9//84
f 14//85 19//85 16//85
f 26//86 27//86 22//86
f 27//87 25//87 20//87
f 12//88 26//88 22//88
f 21//89 19//89 15//89
f 4//90 31//90 30//90
f 6//91 28//91 10//91
f 34//92 35//92 36//92
f 10//93 36//93 11//93
f 28//94 36//94 10//94
f 38//95 33//95 39//95
f 37//96 35//96 34//96
f 38//97 39//97 37//97
f 48//98 47//98 50//98 52//98
f 37//99 39//99 35//99
f 5//100 28//100 6//100
f 30//101 28//101 4//101
f 29//102 17//102 40//102
f 31//103 42//103 38//103
f 40//104 42//104 29//104
f 44//105 46//105 38//105
f 60//106 62//106 67//106 66//106
f 48//107 58//107 49//107
f 52//108 55//108 48//108
f 51//109 50//109 47//109
f 49//110 53//110 47//110
f 57//111 54//111 48//111
f 47//112 53//112 51//112
f 56//113 57//113 48//113
f 61//114 62//114 60//114
f 59//115 61//115 60//115
f 59//116 64//116 63//116
f 67//117 68//117 57//117
f 69//118 67//118 62//118
f 54//119 65//119 58//119
f 64//120 58//120 65//120 69//120
f 69//121 63//121 64//121
f 49//122 58//122 59//122
f 58//123 64//123 59//123
f 68//124 69//124 65//124
f 72//125 70//125 73//125 74//125
f 51//126 70//126 50//126
f 72//127 71//127 70//127
f 50//128 70//128 71//128
f 56//129 71//129 89//129 57//129
f 73//130 77//130 76//130
f 10//131 8//131 2//131 6//131
f 79//132 80//132 89//132 71//132
f 84//133 87//133 90//133 78//133
f 72//134 79//134 71//134
f 72//135 75//135 79//135
f 84//136 78//136 85//136
f 60//137 84//137 83//137
f 84//138 85//138 83//138
f 66//139 87//139 84//139
f 86//140 88//140 80//140
f 38//141 42//141 32//141 33//141
f 4//142 7//142 29//142
f 13//143 12//143 11//143
f 89//144 87//144 66//144
f 9//145 15//145 3//145
f 32//146 42//146 31//146
f 33//147 32//147 42//147 43//147
f 42//148 32//148 29//148
f 39//149 46//149 45//149
f 45//150 13//150 39//150
f 76//151 77//151 85//151 86//151
f 59//152 60//152 53//152
f 49//153 59//153 53//153
f 82//154 83//154 73//154
f 86//155 77//155 81//155 88//155
f 80//156 88//156 81//156
f 89//157 81//157 88//157 90//157
f 88//158 81//158 77//158 90//158
f 78//159 90//159 77//159
f 13//160 24//160 12//160
f 53//161 60//161 82//161
f 89//162 66//162 57//162
